<?xml version="1.0" standalone="no"?>
<!DOCTYPE svg PUBLIC "-//W3C//DTD SVG 20010904//EN"
 "http://www.w3.org/TR/2001/REC-SVG-20010904/DTD/svg10.dtd">
<svg version="1.0" xmlns="http://www.w3.org/2000/svg"
 width="260.000000pt" height="260.000000pt" viewBox="0 0 260.000000 260.000000"
 preserveAspectRatio="xMidYMid meet">
<metadata>
Created by potrace 1.14, written by Peter Selinger 2001-2017
</metadata>
<g transform="translate(0.000000,260.000000) scale(0.100000,-0.100000)"
fill="#000000" stroke="none">
<path d="M2196 2443 c-45 -5 -84 -43 -932 -904 l-439 -447 -90 -26 c-49 -14
-99 -26 -111 -26 -11 0 -35 -11 -54 -25 -19 -14 -40 -25 -46 -25 -18 0 -152
-112 -159 -133 -4 -9 -17 -29 -29 -45 -13 -15 -26 -40 -30 -57 -4 -16 -15 -38
-24 -48 -9 -10 -19 -46 -23 -87 -13 -116 -52 -170 -167 -224 -27 -12 -32 -20
-32 -49 0 -41 33 -74 110 -110 47 -22 74 -26 195 -31 168 -8 328 4 353 27 9 8
38 21 64 27 27 7 48 16 48 21 0 5 14 16 31 25 39 20 179 153 179 169 0 7 7 19
16 26 9 8 25 32 36 54 10 22 25 51 33 65 8 14 15 35 15 47 0 23 66 94 375 408
322 328 618 628 793 807 181 184 219 237 228 318 4 37 -1 57 -28 111 -62 123
-126 151 -312 132z m175 -164 c35 -42 38 -90 7 -130 -13 -16 -180 -188 -373
-383 -192 -194 -412 -418 -489 -496 -165 -169 -164 -169 -258 -67 -32 34 -58
66 -58 71 0 9 49 59 630 645 212 214 392 391 400 394 8 4 37 5 64 3 42 -3 54
-9 77 -37z m-1192 -1188 c34 -32 61 -63 61 -68 0 -20 -25 -59 -66 -101 -33
-33 -49 -42 -76 -42 -30 0 -43 9 -91 62 -32 34 -57 68 -57 75 0 8 26 41 58 73
76 78 92 78 171 1z m-366 -162 c12 -7 61 -50 109 -98 99 -97 107 -121 63 -181
-14 -19 -25 -39 -25 -45 0 -42 -178 -215 -220 -215 -10 0 -29 -10 -44 -21 -47
-37 -293 -53 -361 -25 -39 17 -43 30 -18 58 26 29 63 127 72 195 6 37 18 74
30 89 12 15 21 32 21 38 0 16 100 120 130 136 14 7 28 19 33 26 4 7 33 18 65
24 31 7 64 16 72 21 21 12 47 11 73 -2z"/>
</g>
</svg>
